<?xml version="1.0" encoding="UTF-8" standalone="no"?>
<!-- Created with Inkscape (http://www.inkscape.org/) -->

<svg
   width="24mm"
   height="24mm"
   viewBox="0 0 24 24"
   version="1.1"
   id="svg5"
   xml:space="preserve"
   inkscape:version="1.2.1 (9c6d41e410, 2022-07-14)"
   sodipodi:docname="bigR.svg"
   xmlns:inkscape="http://www.inkscape.org/namespaces/inkscape"
   xmlns:sodipodi="http://sodipodi.sourceforge.net/DTD/sodipodi-0.dtd"
   xmlns="http://www.w3.org/2000/svg"
   xmlns:svg="http://www.w3.org/2000/svg"><sodipodi:namedview
     id="namedview7"
     pagecolor="#ffffff"
     bordercolor="#000000"
     borderopacity="0.25"
     inkscape:showpageshadow="2"
     inkscape:pageopacity="0.0"
     inkscape:pagecheckerboard="0"
     inkscape:deskcolor="#d1d1d1"
     inkscape:document-units="mm"
     showgrid="false"
     inkscape:zoom="0.69664703"
     inkscape:cx="435.65821"
     inkscape:cy="180.86634"
     inkscape:window-width="1499"
     inkscape:window-height="991"
     inkscape:window-x="26"
     inkscape:window-y="23"
     inkscape:window-maximized="0"
     inkscape:current-layer="layer1" /><defs
     id="defs2" /><g
     inkscape:label="Layer 1"
     inkscape:groupmode="layer"
     id="layer1"
     transform="translate(135.18385,-161.54763)"><path
       style="fill:#000000;stroke-width:0.39313"
       d="m -135.18385,173.54767 v -12.00004 l 8.75614,0.1157 8.75614,0.11571 1.8013,0.79611 c 5.82024,2.57235 5.37128,10.01471 -0.72579,12.03125 -2.1531,0.71212 -2.35208,0.14102 1.95131,5.60055 4.30493,5.46146 4.28987,5.41254 1.62232,5.27099 l -2.05308,-0.10894 -3.67623,-4.89838 -3.67624,-4.89838 -4.43213,-0.0162 -4.43212,-0.0162 v 5.00386 5.00393 h -1.94581 -1.94581 z m 15.59859,-0.86866 c 3.62412,-0.83219 5.11814,-4.54465 2.71948,-6.75754 -1.57708,-1.45494 -3.39855,-1.79985 -9.56193,-1.81065 l -4.86452,-0.008 v 4.46779 4.46781 l 5.08072,-0.002 c 2.7944,-8.1e-4 5.77622,-0.16169 6.62625,-0.35687 z"
       id="path225" /></g></svg>
